<svg id="Logos" xmlns="http://www.w3.org/2000/svg" xmlns:xlink="http://www.w3.org/1999/xlink" viewBox="0 0 1010.97 211.61"><defs><style>.cls-1{fill:none;}.cls-2{fill:#0d1641;}.cls-3{fill:url(#Dégradé_sans_nom_2);}.cls-4{fill:url(#Dégradé_sans_nom_4);}.cls-5{fill:url(#Dégradé_sans_nom_16);}.cls-6{fill:url(#Dégradé_sans_nom_4-2);}.cls-7{fill:url(#Dégradé_sans_nom_16-2);}</style><linearGradient id="Dégradé_sans_nom_2" x1="-525.6" y1="9035" x2="-424.19" y2="9035" gradientTransform="translate(689.76 -8900.15)" gradientUnits="userSpaceOnUse"><stop offset="0.1" stop-color="#0169b4"/><stop offset="0.9" stop-color="#00bbfc"/></linearGradient><linearGradient id="Dégradé_sans_nom_4" x1="1202.41" y1="-2877.68" x2="1355.84" y2="-2877.68" gradientTransform="translate(1398.37 -2742.83) rotate(180)" gradientUnits="userSpaceOnUse"><stop offset="0.04" stop-color="#ff015b"/><stop offset="0.74" stop-color="#d70190"/></linearGradient><linearGradient id="Dégradé_sans_nom_16" x1="-525.6" y1="9035" x2="-424.19" y2="9035" gradientTransform="translate(689.76 -8900.15)" gradientUnits="userSpaceOnUse"><stop offset="0" stop-color="#0d1641"/><stop offset="1" stop-color="#04018d"/></linearGradient><linearGradient id="Dégradé_sans_nom_4-2" x1="606.8" y1="190.49" x2="760.23" y2="190.49" gradientTransform="translate(-373.02 -55.64)" xlink:href="#Dégradé_sans_nom_4"/><linearGradient id="Dégradé_sans_nom_16-2" x1="-525.6" y1="9035" x2="-424.19" y2="9035" xlink:href="#Dégradé_sans_nom_16"/><symbol id="Nouveau_symbole_4" data-name="Nouveau symbole 4" viewBox="0 0 63.53 103.71"><rect class="cls-1" width="63.53" height="103.71"/><path class="cls-2" d="M2.19,77.74H62.12a1.41,1.41,0,0,0,1.41-1.41v-10a1.41,1.41,0,0,0-1.41-1.41H15.41V46.73h41.4a1.42,1.42,0,0,0,1.41-1.42V35.67a1.41,1.41,0,0,0-1.41-1.41H15.41V18.49a1.85,1.85,0,0,1,1.84-1.84H61.41a1.41,1.41,0,0,0,1.41-1.41v-10a1.42,1.42,0,0,0-1.41-1.42H12.65A12.65,12.65,0,0,0,0,16.49V75.55A2.19,2.19,0,0,0,2.19,77.74Z"/></symbol><symbol id="Nouveau_symbole_50" data-name="Nouveau symbole 50" viewBox="0 0 70.42 103.72"><rect class="cls-1" width="70.42" height="103.72"/><path class="cls-2" d="M69.08,25.47h-14a1.35,1.35,0,0,0-1.2.74L35.41,63.6,16.55,26.19a1.34,1.34,0,0,0-1.18-.72h-14a1.33,1.33,0,0,0-1.18,2L27.49,80l-.33.62a17.71,17.71,0,0,1-9,8.1A38.39,38.39,0,0,1,7.33,91.29a1.55,1.55,0,0,0-1.42,1.63l.59,9.34a1.55,1.55,0,0,0,1.63,1.45c8-.44,14.65-2.25,19.84-5.37,5.77-3.47,10.7-9.79,14.67-17.64L70.26,27.42A1.33,1.33,0,0,0,69.08,25.47Z"/></symbol><symbol id="Nouveau_symbole_30" data-name="Nouveau symbole 30" viewBox="0 0 63 103.72"><rect class="cls-1" width="63" height="103.72"/><path class="cls-2" d="M63,51c0-10.33-6.39-26.71-31.65-26.71a37,37,0,0,0-16.63,3.58A25.58,25.58,0,0,0,0,51.63,24.19,24.19,0,0,0,4.57,66.42a29,29,0,0,0,12.54,9.41A47.17,47.17,0,0,0,35,79.09,63.7,63.7,0,0,0,50.6,77.25a48,48,0,0,0,10.78-4.09,1.56,1.56,0,0,0,.72-1.9L59.25,63a1.58,1.58,0,0,0-2.15-.9,54.08,54.08,0,0,1-8.85,3.09A49.35,49.35,0,0,1,36,66.87,27.88,27.88,0,0,1,24,64.5a14.15,14.15,0,0,1-7.25-7.4l-.63-2.33H63ZM16,45.49a15,15,0,0,1,6-8.1A17.63,17.63,0,0,1,32,34.46a16.33,16.33,0,0,1,8.68,2.39C43.34,38.49,46,41.27,46,45.3Z"/></symbol><symbol id="Nouveau_symbole_44" data-name="Nouveau symbole 44" viewBox="0 0 54.15 103.72"><rect class="cls-1" width="54.15" height="103.72"/><path class="cls-2" d="M42.73,48.68a129.5,129.5,0,0,0-13.28-2.56,63.63,63.63,0,0,1-10.33-2.07c-3.21-1.13-3.89-2.18-3.89-4.09s1.85-4.87,11.47-4.87c8.34,0,16.83,2.87,20.84,4.32a1.56,1.56,0,0,0,2-1l2.51-7.85a1.55,1.55,0,0,0-.87-1.92c-3.67-1.51-11.44-4.36-24.26-4.36-10.77,0-26.4,3.2-26.4,16.37,0,3.91,1.1,6.86,3.37,9a19.37,19.37,0,0,0,8.3,4.43,103.39,103.39,0,0,0,12.59,2.62c3.45.56,7.71,1.22,10.37,1.68,4.35.77,5.43,2.13,5.43,4.06,0,2.32-3.56,4.81-13.14,4.81A56.36,56.36,0,0,1,4.3,62.22a1.57,1.57,0,0,0-2.2,1.05L0,72.09a1.56,1.56,0,0,0,.83,1.76,58.25,58.25,0,0,0,11,3.45,68.76,68.76,0,0,0,15.8,1.79c7.88,0,15.07-1.52,19.75-4.51s6.76-7.06,6.76-12.69C54.15,53,45.89,49.56,42.73,48.68Z"/></symbol><symbol id="Nouveau_symbole_14" data-name="Nouveau symbole 14" viewBox="0 0 84.52 103.71"><rect class="cls-1" width="84.52" height="103.71"/><path class="cls-2" d="M79,20.38A36,36,0,0,0,63.93,7.24,50,50,0,0,0,42.32,2.65,50,50,0,0,0,20.71,7.24,36.41,36.41,0,0,0,5.57,20.39C1.87,26.08,0,32.92,0,40.72a36.93,36.93,0,0,0,5.57,20.4A36.27,36.27,0,0,0,20.71,74.33a50,50,0,0,0,21.61,4.59,50,50,0,0,0,21.61-4.59A35.84,35.84,0,0,0,79,61.13a37.29,37.29,0,0,0,5.51-20.41C84.52,32.92,82.67,26.08,79,20.38ZM65,54.87a22.46,22.46,0,0,1-9.7,8.57,30.65,30.65,0,0,1-13,2.77,30.93,30.93,0,0,1-13.11-2.77,22.46,22.46,0,0,1-9.7-8.57c-2.41-3.81-3.62-8.57-3.62-14.15s1.22-10.31,3.62-14.09a22.68,22.68,0,0,1,9.7-8.5,30.94,30.94,0,0,1,13.11-2.78,30.65,30.65,0,0,1,13,2.78A22.51,22.51,0,0,1,65,26.7a25.83,25.83,0,0,1,3.63,14A26.08,26.08,0,0,1,65,54.87Z"/></symbol><symbol id="Nouveau_symbole_5" data-name="Nouveau symbole 5" viewBox="0 0 59.87 103.71"><rect class="cls-1" width="59.87" height="103.71"/><path class="cls-2" d="M2.19,77.74h11a2.19,2.19,0,0,0,2.19-2.19V49.2H53.74a1.42,1.42,0,0,0,1.42-1.41V38.15a1.42,1.42,0,0,0-1.42-1.41H15.41V18.49a1.85,1.85,0,0,1,1.84-1.84H58.46a1.41,1.41,0,0,0,1.41-1.41v-10a1.42,1.42,0,0,0-1.41-1.42H12.65A12.65,12.65,0,0,0,0,16.49V75.55A2.19,2.19,0,0,0,2.19,77.74Z"/></symbol><symbol id="Nouveau_symbole_13" data-name="Nouveau symbole 13" viewBox="0 0 83.81 103.71"><rect class="cls-1" width="83.81" height="103.71"/><path class="cls-2" d="M81.14,3.83H71.35a2.67,2.67,0,0,0-2.67,2.68V60.77L24.2,7a9.1,9.1,0,0,0-6.92-3.2H2.67A2.68,2.68,0,0,0,0,6.51V75.07a2.68,2.68,0,0,0,2.67,2.67h9.79a2.67,2.67,0,0,0,2.67-2.67V20.8L61,74.55a9.1,9.1,0,0,0,6.92,3.19H81.14a2.68,2.68,0,0,0,2.67-2.67V6.51A2.68,2.68,0,0,0,81.14,3.83Z"/></symbol><symbol id="Nouveau_symbole_19" data-name="Nouveau symbole 19" viewBox="0 0 72.02 103.71"><rect class="cls-1" width="72.02" height="103.71"/><path class="cls-2" d="M0,5.93v8.62a2.1,2.1,0,0,0,2.1,2.1H28.77v59a2.11,2.11,0,0,0,2.11,2.11H42.09a2.1,2.1,0,0,0,2.1-2.11v-59H69.92a2.1,2.1,0,0,0,2.1-2.1V5.93a2.1,2.1,0,0,0-2.1-2.1H2.1A2.1,2.1,0,0,0,0,5.93Z"/></symbol><symbol id="Nouveau_symbole_22" data-name="Nouveau symbole 22" viewBox="0 0 125.82 103.71"><rect class="cls-1" width="125.82" height="103.71"/><path class="cls-2" d="M.08,6.46l20,69a3.12,3.12,0,0,0,3,2.25H43.46a3.11,3.11,0,0,0,3-2.32L62.38,18.07a.55.55,0,0,1,1.06,0L79.35,75.41a3.11,3.11,0,0,0,3,2.33h20.5a3.11,3.11,0,0,0,3-2.25l19.9-69a2.06,2.06,0,0,0-2-2.62H110.43a2,2,0,0,0-2,1.52L93.3,61.44a.9.9,0,0,1-1.73,0L76,6.82a4.14,4.14,0,0,0-4-3H53.84a4.12,4.12,0,0,0-4,3L34.53,61.45a.9.9,0,0,1-1.73,0L17.37,5.34a2.06,2.06,0,0,0-2-1.51H2.06A2.06,2.06,0,0,0,.08,6.46Z"/></symbol><symbol id="Nouveau_symbole_17" data-name="Nouveau symbole 17" viewBox="0 0 66.57 103.71"><rect class="cls-1" width="66.57" height="103.71"/><path class="cls-2" d="M60.36,41.19a22,22,0,0,0,4-13.2,21.11,21.11,0,0,0-4-12.79A25.44,25.44,0,0,0,49,6.8a46.78,46.78,0,0,0-17.32-3H10a10,10,0,0,0-10,10V75.64a2.1,2.1,0,0,0,2.1,2.1H13.31a2.1,2.1,0,0,0,2.1-2.1V53.45h1.32c6.11,0,15.45,0,16.14-.11l.75-.07L51.08,76.88a2.1,2.1,0,0,0,1.69.86h11.7a2.1,2.1,0,0,0,1.66-3.39L47.54,50.44l1.58-.67A26.09,26.09,0,0,0,60.36,41.19Zm-32.07-.45H15.41V18.06a1.42,1.42,0,0,1,1.42-1.41H30.88c5.48,0,9.8.91,12.82,2.72a9.59,9.59,0,0,1,4.89,8.74C48.59,36.49,41.76,40.74,28.29,40.74Z"/></symbol><symbol id="Nouveau_symbole_10" data-name="Nouveau symbole 10" viewBox="0 0 68.34 103.71"><rect class="cls-1" width="68.34" height="103.71"/><rect class="cls-2" y="2.66" width="15.32" height="75.09" rx="1.6"/><path class="cls-2" d="M49.17,77.32a1.15,1.15,0,0,0,.89.42H67.19a1.14,1.14,0,0,0,.87-1.89L37.66,40.48a1.4,1.4,0,0,1-.06-1.77l25-33a1.15,1.15,0,0,0-.91-1.84H45.92a1.14,1.14,0,0,0-.91.46L19.49,37.68a2.94,2.94,0,0,0,.07,3.65Z"/></symbol></defs><path class="cls-3" d="M196,87.78v94.14a47.51,47.51,0,0,0,37.82-1V88.76A47.47,47.47,0,0,0,196,87.78Z" transform="translate(-42.53 -36.43)"/><path class="cls-4" d="M164.16,135.17v-.64A50.3,50.3,0,0,1,196,87.78v-25s-58.78-2-95.72,20.85-57.58,51.07-57.71,51.25c.13.17,20.88,28.49,57.71,51.25S196,206.94,196,206.94v-25A50.32,50.32,0,0,1,164.16,135.17Z" transform="translate(-42.53 -36.43)"/><path class="cls-5" d="M164.16,134.53v.64A50.32,50.32,0,0,0,196,181.92V87.78A50.3,50.3,0,0,0,164.16,134.53Z" transform="translate(-42.53 -36.43)"/><path class="cls-6" d="M329.5,83.6c-36.94-22.82-95.72-20.85-95.72-20.85v26l.4.17A80.58,80.58,0,0,1,242,93.16l.9.56c30.21,18.92,30.21,63.34,0,82.26l-.9.55a78.55,78.55,0,0,1-7.84,4.24l-.4.17v26s58.78,2,95.72-20.84,57.58-51.08,57.71-51.25C387.08,134.67,366.32,106.35,329.5,83.6Z" transform="translate(-42.53 -36.43)"/><path class="cls-7" d="M242,176.53l.9-.55c30.21-18.92,30.21-63.34,0-82.26l-.9-.56a80.58,80.58,0,0,0-7.84-4.23l-.4-.17v92.18l.4-.17A78.55,78.55,0,0,0,242,176.53Z" transform="translate(-42.53 -36.43)"/><use width="63.53" height="103.71" transform="translate(430.04 0) scale(1.71)" xlink:href="#Nouveau_symbole_4"/><use width="70.42" height="103.72" transform="translate(549.88 0) scale(1.71)" xlink:href="#Nouveau_symbole_50"/><use width="63" height="103.72" transform="translate(679.27 0) scale(1.71)" xlink:href="#Nouveau_symbole_30"/><use width="54.15" height="103.72" transform="translate(809.39 0) scale(1.71)" xlink:href="#Nouveau_symbole_44"/><use width="84.52" height="103.71" transform="translate(430.04 152.66) scale(0.57)" xlink:href="#Nouveau_symbole_14"/><use width="59.87" height="103.71" transform="translate(484.9 152.66) scale(0.57)" xlink:href="#Nouveau_symbole_5"/><use width="83.81" height="103.71" transform="translate(654.24 152.66) scale(0.57)" xlink:href="#Nouveau_symbole_13"/><use width="63.53" height="103.71" transform="translate(710.41 152.66) scale(0.57)" xlink:href="#Nouveau_symbole_4"/><use width="72.02" height="103.71" transform="translate(753.34 152.66) scale(0.57)" xlink:href="#Nouveau_symbole_19"/><use width="125.82" height="103.71" transform="translate(801.09 152.66) scale(0.57)" xlink:href="#Nouveau_symbole_22"/><use width="84.52" height="103.71" transform="translate(874.31 152.66) scale(0.57)" xlink:href="#Nouveau_symbole_14"/><use width="66.57" height="103.71" transform="translate(927.47 152.66) scale(0.57)" xlink:href="#Nouveau_symbole_17"/><use width="68.34" height="103.71" transform="translate(972.13 152.66) scale(0.57)" xlink:href="#Nouveau_symbole_10"/></svg>