<?xml version="1.0" encoding="UTF-8"?>
<!DOCTYPE svg PUBLIC "-//W3C//DTD SVG 1.1//EN" "http://www.w3.org/Graphics/SVG/1.1/DTD/svg11.dtd">
<!-- Creator: CorelDRAW X6 -->
<svg xmlns="http://www.w3.org/2000/svg" xml:space="preserve" width="5.19444in" height="1.18055in" version="1.1" style="shape-rendering:geometricPrecision; text-rendering:geometricPrecision; image-rendering:optimizeQuality; fill-rule:evenodd; clip-rule:evenodd"
viewBox="0 0 5194 1181"
 xmlns:xlink="http://www.w3.org/1999/xlink">
 <defs>
  <style type="text/css">
   <![CDATA[
    .str1 {stroke:#A82A76;stroke-width:30.7638}
    .str2 {stroke:#A82A76;stroke-width:30.7638;stroke-linecap:round}
    .str0 {stroke:#A9ABAE;stroke-width:55.5551}
    .fil2 {fill:none;fill-rule:nonzero}
    .fil1 {fill:#0077BD;fill-rule:nonzero}
    .fil0 {fill:#A82A76;fill-rule:nonzero}
   ]]>
  </style>
 </defs>
 <g id="Layer_x0020_1">
  <metadata id="CorelCorpID_0Corel-Layer"/>
  <path class="fil0" d="M2429 760c79,0 135,-52 135,-155 0,-102 -56,-154 -135,-154 -79,0 -135,52 -135,154 0,103 56,155 135,155zm0 -46c-44,0 -78,-32 -78,-109 0,-77 34,-107 78,-107 44,0 78,30 78,107 0,77 -35,109 -78,109zm355 -258c-14,-8 -29,-14 -53,-14 -40,0 -68,24 -68,75l0 23 -32 0 0 43 32 0 0 174 55 0 0 -174 50 0 2 -43 -52 0 0 -24c0,-18 7,-27 21,-27 10,0 18,2 27,7l19 -39zm70 -1l0 303 55 0 0 -196c0,-22 0,-42 -2,-60l1 0c4,17 13,39 23,58l97 198 83 0 0 -303 -55 0 0 189c0,20 0,43 2,67l-1 0c-4,-21 -19,-51 -27,-67l-93 -190 -83 0zm557 195c0,-70 -36,-114 -99,-114 -62,0 -104,44 -104,112 0,73 45,112 108,112 46,0 73,-27 88,-59l-40 -18c-9,20 -25,32 -48,32 -27,0 -48,-11 -53,-42l148 -23zm-149 -16c0,-34 18,-56 48,-56 25,0 41,14 43,42l-92 14zm244 -144l0 49 -32 0 0 43 32 0 0 106c0,50 22,72 66,72 19,0 33,-3 47,-8l-8 -41c-9,2 -18,4 -25,4 -15,0 -25,-7 -25,-28l0 -104 50 0 2 -43 -52 0 0 -55 -55 7zm168 49l55 218 72 0 39 -166 39 166 72 0 55 -218 -56 -2 -35 177 -39 -175 -72 0 -39 175 -35 -177 -56 2zm497 41c31,0 48,30 48,67 0,37 -17,68 -48,68 -31,0 -48,-31 -48,-68 0,-37 17,-67 48,-67zm0 -45c-66,0 -103,48 -103,111 0,63 37,113 103,113 66,0 103,-50 103,-113 0,-63 -37,-111 -103,-111zm195 3l0 218 55 0 0 -140c15,-21 40,-28 63,-27 0,-1 6,-52 6,-54 -35,-1 -61,14 -75,38l0 -36 -48 1zm206 -94l0 312 55 0 0 -58 30 -36 55 96 61 -2 0 -2 -78 -132 70 -80 0 -3 -57 -2 -81 100 0 -194 -55 2z"/>
  <path class="fil1" d="M1261 454l0 303 173 0 0 -46 -117 0 0 -84 98 0 0 -46 -98 0 0 -81 114 0 2 -46 -171 0zm238 85l76 223 -4 13c-9,30 -28,36 -59,41l9 42c64,-3 90,-27 109,-83l78 -236 -56 -2 -48 170 -48 -170 -56 2zm475 110c0,-70 -36,-114 -99,-114 -62,0 -104,44 -104,112 0,73 45,112 108,112 46,0 73,-27 88,-59l-40 -18c-9,20 -25,32 -48,32 -27,0 -48,-11 -53,-42l148 -23zm-149 -16c0,-34 18,-56 48,-56 25,0 41,14 43,42l-92 14zm217 74c10,28 37,53 89,53 46,0 86,-23 86,-70 0,-76 -115,-54 -115,-90 0,-14 12,-20 31,-20 19,0 34,9 40,24l41 -21c-12,-32 -44,-48 -83,-48 -52,0 -84,26 -84,65 0,76 115,58 115,93 0,14 -11,21 -31,21 -21,0 -38,-9 -45,-28l-43 20z"/>
  <path class="fil2 str0" d="M759 897c169,0 307,-137 307,-307 0,-169 -137,-307 -307,-307 -169,0 -307,137 -307,307 0,169 137,307 307,307z"/>
  <path class="fil0" d="M953 700l-56 -43c-7,12 -16,23 -26,33 -1,1 -2,2 -3,2l57 44c4,3 9,5 14,5 7,0 14,-3 18,-9 8,-10 6,-24 -4,-32l0 0z"/>
  <path class="fil2 str1" d="M727 718c86,0 155,-68 155,-152 0,-84 -70,-152 -155,-152 -86,0 -155,68 -155,152 0,84 70,152 155,152z"/>
  <path class="fil2 str2" d="M727 476c0,0 80,0 95,75"/>
 </g>
</svg>
